<?xml version="1.0" standalone="no"?>
<!DOCTYPE svg PUBLIC "-//W3C//DTD SVG 20010904//EN"
 "http://www.w3.org/TR/2001/REC-SVG-20010904/DTD/svg10.dtd">
<svg version="1.0" xmlns="http://www.w3.org/2000/svg"
 width="963.000000pt" height="963.000000pt" viewBox="0 0 963.000000 963.000000"
 preserveAspectRatio="xMidYMid meet">
<metadata>
Created by potrace 1.11, written by Peter Selinger 2001-2013
</metadata>
<g transform="translate(0.000000,963.000000) scale(0.100000,-0.100000)"
fill="#000000" stroke="none">
<path d="M4498 9615 c-2 -2 -48 -6 -103 -9 -255 -16 -402 -44 -592 -113 -48
-18 -58 -36 -15 -29 15 2 52 8 82 11 30 4 64 9 75 11 11 3 36 7 55 10 19 3 42
7 50 9 8 2 42 7 75 10 33 4 71 8 85 10 14 2 61 7 105 11 44 3 89 8 100 10 35
7 265 17 395 17 255 1 758 -22 840 -38 46 -10 140 -13 140 -5 0 5 -33 15 -72
24 -144 32 -166 35 -438 51 -52 3 -124 8 -160 11 -75 6 -617 14 -622 9z"/>
<path d="M4705 9483 c-108 -4 -135 -11 -135 -33 0 -10 -4 -21 -8 -24 -4 -2
-93 -7 -197 -11 -541 -17 -542 -17 -730 -84 -88 -32 -214 -75 -280 -96 -214
-66 -447 -146 -590 -203 -130 -51 -412 -189 -474 -231 -14 -10 -60 -38 -101
-62 -41 -24 -79 -47 -85 -52 -5 -4 -46 -31 -90 -60 -44 -28 -82 -54 -85 -57
-3 -3 -21 -17 -40 -30 -117 -80 -279 -229 -399 -366 -51 -59 -72 -75 -119 -93
-49 -18 -68 -34 -132 -107 -41 -48 -80 -92 -85 -98 -64 -70 -272 -338 -311
-401 -10 -16 -24 -36 -31 -43 -7 -7 -13 -20 -13 -28 0 -8 -4 -14 -10 -14 -5 0
-10 -5 -10 -11 0 -6 -8 -23 -19 -37 -10 -15 -35 -61 -56 -102 -21 -41 -44 -82
-51 -90 -7 -8 -14 -19 -15 -25 -2 -5 -42 -91 -90 -190 -121 -252 -156 -334
-161 -383 -3 -23 -3 -42 1 -42 9 0 72 112 111 195 164 351 255 522 349 660 84
124 94 137 123 170 16 16 28 34 28 38 0 13 132 140 183 175 26 18 47 31 47 27
0 -3 -78 -121 -172 -263 -95 -141 -174 -263 -176 -269 -2 -7 -8 -13 -13 -13
-5 0 -9 -4 -9 -9 0 -5 -19 -40 -42 -77 -51 -85 -90 -172 -86 -192 2 -11 24 7
63 53 112 128 123 140 132 132 4 -5 -12 -45 -36 -90 -23 -45 -75 -145 -113
-222 -72 -142 -92 -168 -185 -236 -48 -36 -58 -51 -134 -207 -95 -196 -99
-205 -114 -262 -1 -3 -4 -12 -8 -20 -25 -62 -94 -343 -103 -420 -2 -19 -6 -46
-9 -60 -2 -14 -7 -47 -11 -75 -3 -27 -7 -57 -9 -65 -2 -8 -6 -55 -10 -105 -4
-49 -9 -99 -11 -110 -4 -22 -14 -193 -19 -330 -7 -162 -7 -307 0 -495 3 -109
2 -179 -3 -170 -10 16 -78 282 -86 335 -2 17 -5 153 -5 303 -1 226 -3 272 -15
272 -31 0 -50 -102 -49 -265 0 -101 11 -379 18 -470 14 -181 22 -248 45 -390
28 -173 88 -474 116 -580 14 -55 27 -110 30 -122 10 -52 86 -269 146 -418 36
-88 73 -183 82 -211 19 -59 65 -134 82 -134 12 0 10 27 -6 65 -4 11 -17 45
-28 75 -11 30 -46 123 -78 205 -79 208 -184 518 -180 530 1 6 -1 23 -5 39 -5
16 -11 47 -15 70 -3 22 -7 43 -9 46 -2 3 -6 29 -10 59 -4 30 -9 63 -11 75 -6
30 -16 106 -19 139 -1 15 -5 30 -8 33 -6 6 -1 47 9 74 11 30 31 -46 64 -236
17 -104 42 -232 55 -284 26 -108 89 -258 100 -240 9 15 0 75 -45 305 -5 28
-12 65 -15 83 -3 18 -12 63 -20 100 -7 38 -17 90 -20 118 -3 27 -8 63 -10 80
-2 17 -7 69 -11 115 -3 46 -8 87 -11 91 -2 5 -1 8 4 8 4 0 30 -109 56 -243 27
-133 53 -262 58 -287 5 -25 11 -56 14 -70 2 -14 18 -81 36 -150 17 -69 32
-132 34 -140 11 -51 62 -194 85 -240 15 -30 47 -113 70 -185 40 -121 73 -189
107 -224 24 -23 125 -178 213 -326 74 -123 154 -235 420 -585 36 -47 67 -87
70 -90 4 -4 47 -59 84 -109 6 -8 -11 0 -37 18 -27 18 -50 31 -52 29 -8 -8 177
-229 275 -328 42 -42 163 -145 200 -170 19 -13 38 -29 42 -35 4 -5 8 -6 8 -1
0 4 -70 77 -155 161 -85 85 -155 158 -155 164 0 5 -7 17 -16 25 -34 35 4 13
47 -27 61 -55 149 -131 219 -187 30 -24 57 -47 60 -50 3 -3 23 -19 45 -35 22
-17 42 -32 45 -35 3 -4 23 -19 45 -35 22 -17 42 -32 45 -35 3 -4 28 -22 55
-41 28 -18 52 -36 55 -39 15 -15 132 -90 140 -90 6 0 10 -4 10 -9 0 -5 8 -11
18 -15 9 -3 35 -16 57 -29 450 -262 591 -335 845 -435 67 -26 146 -55 160 -57
3 0 43 -13 90 -27 47 -14 99 -29 115 -34 17 -4 35 -8 40 -10 56 -16 293 -62
356 -69 24 -3 55 -7 69 -10 25 -4 120 -14 192 -20 53 -4 158 -16 183 -21 125
-23 608 -23 810 1 17 2 57 6 90 10 33 4 107 16 165 27 58 10 116 21 130 24
197 36 610 141 730 185 30 11 60 22 65 23 6 2 19 7 30 11 11 4 52 20 90 35 39
16 108 46 155 67 89 42 140 61 187 69 46 8 126 48 230 116 54 34 100 65 103
68 3 3 41 31 85 61 44 30 85 57 90 62 6 4 80 59 165 123 159 120 287 223 374
304 92 84 311 305 381 384 39 44 75 84 81 90 80 83 357 457 411 556 10 19 31
54 46 77 15 24 27 45 27 48 0 3 11 22 23 43 54 85 165 309 252 507 78 177 191
546 219 716 3 19 8 45 11 59 3 14 8 39 10 55 3 17 8 37 10 45 2 8 6 35 9 60 3
25 8 54 10 65 3 19 13 79 21 135 6 36 15 117 20 175 3 28 8 70 11 95 3 25 7
178 9 340 2 246 5 302 19 339 9 25 18 56 21 70 2 14 11 59 18 99 9 45 13 126
12 220 -3 151 -10 245 -30 372 -2 14 -6 45 -10 70 -3 25 -8 56 -10 70 -3 14
-7 41 -10 60 -3 19 -10 60 -15 90 -5 30 -12 71 -15 90 -3 19 -8 42 -10 50 -2
8 -7 30 -10 48 -11 65 -44 198 -63 252 -37 105 -159 366 -241 515 -49 87 -104
187 -116 207 -5 9 -23 41 -39 70 -177 325 -405 617 -651 833 -38 33 -73 65
-79 70 -32 30 -98 77 -95 68 2 -7 33 -42 69 -80 65 -68 98 -105 157 -178 114
-143 143 -181 143 -187 0 -19 -93 37 -143 85 -24 23 -131 145 -163 186 -31 39
-146 173 -186 216 -20 22 -47 52 -60 66 -24 26 -82 52 -92 42 -3 -3 -13 3 -23
13 -33 33 -255 195 -383 279 -206 135 -563 333 -652 360 -13 4 -41 16 -63 26
-199 92 -803 283 -990 315 -11 1 -48 8 -82 14 -85 15 -149 21 -388 35 -33 2
-103 7 -155 10 -106 7 -408 12 -515 8z m-1547 -3297 c3 -17 5 -35 3 -41 -2 -5
-5 -19 -7 -30 -2 -11 -7 -301 -10 -644 -5 -546 -7 -627 -21 -648 -35 -52 -64
-10 -132 194 -22 66 -47 145 -55 175 -8 29 -31 109 -51 178 -38 132 -83 293
-90 322 -8 37 -67 253 -69 255 -4 5 3 -739 8 -787 15 -150 18 -301 6 -315 -7
-8 -16 -12 -21 -9 -5 3 -9 1 -9 -4 0 -8 -21 -9 -52 -3 -4 0 -6 65 -5 144 0 78
-3 214 -7 302 -17 314 -8 864 15 907 17 33 41 16 80 -56 21 -39 37 -72 36 -75
-1 -8 12 -50 23 -76 30 -64 173 -604 225 -848 9 -43 19 -76 22 -74 3 3 6 258
8 566 2 309 6 570 10 580 7 22 28 29 63 23 16 -3 25 -14 30 -36z m-1364 21
c16 -12 18 -35 22 -208 2 -106 6 -250 9 -319 23 -570 25 -818 8 -853 -19 -39
-58 -56 -80 -34 -17 16 -19 68 -23 662 -1 192 -8 231 -23 139 -3 -16 -17 -75
-31 -131 -35 -137 -54 -231 -62 -300 -8 -80 -31 -132 -60 -139 -51 -13 -73 31
-79 156 -5 85 -13 176 -21 215 -2 11 -6 29 -8 40 -2 11 -10 43 -16 70 -6 28
-14 59 -16 70 -2 11 -19 76 -38 145 l-35 125 -1 -65 c-3 -83 0 -356 5 -480 3
-103 7 -331 5 -395 -1 -51 -21 -79 -50 -70 -43 14 -52 45 -49 177 1 68 1 351
0 630 -2 500 -2 507 18 527 26 26 33 26 57 -1 49 -56 116 -300 189 -693 28
-149 43 -202 44 -152 1 15 1 29 1 32 1 3 7 23 15 45 8 22 14 43 14 45 0 5 2
19 16 80 2 11 20 99 39 196 33 168 41 218 51 319 13 129 17 146 37 163 24 20
38 21 62 4z m2862 -114 c1 -43 5 -163 9 -268 9 -248 13 -422 15 -685 l2 -216
61 1 c80 2 92 -2 107 -30 11 -20 10 -28 -2 -47 -14 -21 -23 -24 -84 -23 -38 1
-73 -2 -79 -5 -28 -19 -55 -17 -80 6 -24 22 -26 29 -19 67 10 58 7 270 -11
662 -2 50 -7 189 -11 310 -11 341 -12 328 31 337 40 9 59 -25 61 -109z m2671
85 c7 -8 14 -100 18 -228 4 -118 9 -276 11 -350 2 -74 5 -254 6 -400 3 -299
-4 -277 88 -275 43 1 59 -3 73 -18 44 -50 8 -85 -86 -82 -42 1 -71 -3 -77 -11
-16 -18 -73 -2 -86 25 -7 14 -9 36 -4 59 5 20 7 92 5 159 -3 138 -16 513 -20
588 -9 159 -14 532 -7 541 17 26 55 22 79 -8z m671 -11 c15 -12 16 -49 0 -65
-7 -7 -36 -12 -65 -12 -53 0 -63 -9 -52 -45 1 -5 4 -129 5 -275 1 -146 4 -319
7 -385 6 -110 16 -325 21 -450 3 -69 -9 -111 -35 -118 -54 -14 -75 28 -70 142
7 145 6 399 -3 546 -4 77 -9 230 -10 340 -1 110 -6 207 -10 216 -5 12 -16 15
-44 10 -73 -12 -112 1 -112 39 0 38 35 52 175 66 33 4 72 7 87 8 14 1 29 4 33
8 7 7 49 -8 73 -25z m-5680 9 c25 -8 45 -47 36 -71 -8 -19 -57 -32 -106 -29
-43 2 -42 5 -37 -86 2 -36 3 -144 3 -241 l0 -176 36 8 c51 12 58 11 80 -11 40
-40 10 -87 -57 -86 -23 0 -45 -3 -48 -6 -3 -3 -7 -130 -8 -282 l-2 -276 81 1
c84 1 124 -12 124 -41 0 -41 -73 -68 -180 -65 -87 2 -107 10 -114 43 -3 15 -5
268 -5 562 0 294 -3 546 -6 560 -3 14 -8 50 -11 80 -7 73 19 109 86 116 25 3
46 7 48 8 5 5 55 0 80 -8z m1360 0 c12 -4 22 -10 23 -14 0 -4 2 -14 4 -23 4
-22 -4 -32 -38 -47 -18 -7 -34 -9 -44 -3 -9 4 -24 6 -34 4 -17 -5 -18 -13 -14
-82 3 -42 8 -218 10 -391 3 -173 7 -355 9 -405 17 -357 17 -364 -5 -386 -11
-11 -27 -18 -36 -15 -8 3 -18 6 -23 6 -4 0 -13 13 -20 29 -8 21 -10 66 -4 163
8 136 7 300 -1 398 -3 30 -7 174 -10 320 -3 146 -8 284 -11 307 -5 40 -6 41
-37 36 -59 -10 -72 -9 -99 4 -16 8 -28 22 -28 33 0 33 61 56 175 66 38 3 71 7
72 8 5 4 92 -2 111 -8z m2045 -19 c9 -11 17 -25 18 -31 0 -6 2 -90 4 -186 2
-96 6 -238 10 -315 26 -640 27 -773 8 -801 -8 -13 -19 -22 -23 -19 -5 3 -10 0
-12 -7 -3 -7 -13 -2 -26 12 -16 17 -22 36 -22 69 0 37 -10 527 -12 581 -1 32
-19 39 -88 37 -38 -2 -72 -6 -76 -10 -7 -6 -6 -101 1 -187 22 -275 25 -448 6
-460 -56 -34 -85 101 -107 500 -9 185 -12 280 -14 545 -3 323 -5 295 28 295
54 0 57 -7 59 -167 2 -141 10 -445 12 -470 1 -8 17 -9 54 -6 28 4 67 6 85 7
17 0 32 5 33 11 1 13 -2 330 -5 490 -1 66 0 125 2 131 5 16 43 5 65 -19z m543
7 c22 -16 26 -25 21 -46 -8 -30 -42 -45 -102 -43 -48 1 -54 -13 -44 -90 4 -27
6 -132 5 -232 l-1 -182 25 7 c83 23 135 -18 95 -75 -10 -15 -25 -21 -48 -21
-74 1 -67 29 -67 -283 l0 -281 75 4 c41 2 75 -1 75 -5 0 -5 4 -6 9 -3 4 3 16
-1 26 -8 13 -9 16 -20 12 -38 -6 -22 -17 -30 -57 -42 -3 -1 -9 -4 -15 -7 -5
-3 -49 -5 -98 -4 -137 3 -124 -56 -123 568 1 292 -2 557 -7 587 -19 138 -19
143 5 172 15 19 37 30 63 34 22 3 41 7 42 8 11 10 88 -4 109 -20z m2276 -2
c24 -21 26 -42 33 -342 3 -146 8 -296 10 -335 7 -126 17 -438 17 -541 0 -112
-8 -138 -45 -142 -46 -3 -51 15 -53 226 -5 325 -12 455 -26 463 -7 5 -35 7
-63 5 -27 -2 -60 -4 -72 -5 -22 -1 -22 -3 -18 -93 3 -51 8 -133 11 -183 4 -49
8 -152 8 -229 1 -121 -1 -140 -16 -150 -23 -14 -44 13 -54 69 -4 22 -8 42 -9
45 -25 105 -47 517 -49 930 -1 278 0 295 17 298 10 2 31 -1 45 -7 l27 -11 0
-173 c0 -94 2 -235 5 -312 l5 -140 35 2 c19 1 58 4 85 6 l50 4 -2 320 -2 321
22 -5 c12 -3 30 -13 39 -21z m-4354 10 c7 -5 15 -36 17 -74 3 -36 7 -80 9 -99
2 -19 7 -61 11 -94 4 -33 8 -71 11 -85 2 -14 6 -50 9 -80 3 -30 8 -64 10 -75
5 -25 14 -148 20 -280 5 -96 10 -164 20 -250 14 -119 16 -271 3 -287 -15 -19
-68 -32 -68 -17 0 6 -4 8 -9 4 -19 -11 -26 23 -27 145 -2 153 0 140 -23 140
-11 0 -22 4 -25 8 -4 7 -38 13 -101 16 -16 0 -33 6 -38 11 -14 19 -36 -27 -57
-124 -12 -53 -28 -115 -37 -138 -15 -44 -34 -65 -41 -45 -2 6 -9 9 -15 7 -7
-3 -18 -1 -25 4 -11 7 -9 27 12 112 14 57 27 122 30 144 3 22 9 65 15 95 16
82 19 103 46 250 78 433 129 634 176 694 20 26 52 33 77 18z m2681 -2 c14 -7
18 -24 20 -81 1 -40 4 -75 6 -78 2 -3 6 -39 10 -79 3 -41 8 -82 10 -91 2 -10
6 -42 10 -72 3 -30 8 -65 10 -79 7 -40 17 -178 20 -260 2 -80 14 -218 21 -260
3 -14 7 -90 11 -170 4 -120 3 -148 -9 -158 -25 -20 -62 -21 -83 -1 -18 16 -20
30 -19 143 1 138 1 138 -76 150 -9 1 -20 4 -25 7 -6 3 -22 5 -37 4 -16 0 -28
2 -28 5 0 4 -10 6 -22 5 -25 -2 -38 -27 -52 -99 -40 -209 -52 -231 -114 -197
-16 9 -21 18 -17 29 13 30 39 148 50 222 3 14 11 63 20 110 9 47 18 94 19 105
2 11 13 76 26 145 12 69 23 134 25 145 14 80 50 248 65 305 7 25 13 52 15 60
11 54 52 154 71 175 25 27 44 31 73 15z m-2298 -1853 c1 -7 1 -23 0 -37 -5
-130 -11 -525 -12 -783 -1 -283 -4 -320 -19 -339 -30 -38 -50 -9 -105 158 -20
59 -51 160 -70 223 -66 232 -86 306 -90 322 -11 54 -59 225 -64 231 -8 9 -6
-520 3 -632 3 -47 8 -129 12 -182 l6 -98 -28 -10 c-56 -22 -59 -15 -61 157 -1
87 -4 300 -6 473 -5 364 1 493 25 516 15 15 18 12 43 -30 15 -25 36 -70 47
-99 20 -51 95 -293 103 -332 2 -11 15 -63 28 -115 14 -52 39 -157 57 -233 18
-76 35 -135 38 -133 5 6 10 280 11 714 1 242 1 243 24 251 24 9 56 -3 58 -22z
m-2127 11 c21 -21 21 -24 10 -39 -7 -8 -15 -63 -18 -124 -7 -123 -12 -175 -26
-255 -5 -30 -12 -77 -15 -105 -4 -27 -9 -58 -11 -67 -6 -21 -9 -37 -24 -138
-20 -142 -30 -243 -34 -362 -4 -94 -39 -130 -70 -70 -17 33 -49 158 -65 252
-18 104 -19 110 -36 220 -9 58 -18 116 -20 129 -9 54 -14 32 -40 -194 -11 -88
-15 -145 -21 -270 -5 -105 -10 -134 -24 -149 -25 -25 -56 -13 -68 27 -6 18
-13 70 -16 117 -3 47 -8 96 -10 110 -2 14 -7 51 -11 84 -4 32 -8 68 -10 80 -2
11 -6 44 -10 71 -13 102 -16 120 -19 141 -3 12 -8 48 -11 80 -4 33 -9 68 -11
79 -3 11 -9 52 -15 92 -5 39 -12 82 -15 95 -2 13 -6 37 -9 53 -3 17 -8 42 -11
57 -7 36 28 73 54 57 21 -13 47 -90 61 -179 6 -36 13 -74 15 -85 2 -11 7 -51
11 -90 4 -38 8 -83 10 -100 4 -31 16 -156 21 -210 1 -16 3 -43 3 -59 2 -48 9
-26 16 49 4 39 9 72 10 75 2 3 6 43 10 90 4 47 8 87 10 90 2 3 7 53 10 110 4
58 8 122 10 143 2 42 27 67 57 59 27 -7 35 -29 37 -97 1 -33 3 -77 6 -98 7
-51 50 -256 69 -330 8 -32 18 -77 21 -100 7 -46 15 -61 16 -31 0 10 2 26 3 34
4 18 17 122 22 169 2 19 5 48 8 65 4 28 9 68 21 161 6 50 16 185 19 274 3 57
8 86 17 92 20 13 59 11 73 -3z m2988 -3 c12 -3 31 -14 42 -25 16 -16 18 -24
10 -38 -12 -18 -51 -23 -72 -8 -16 11 -67 -35 -80 -74 -9 -25 -8 -125 1 -160
2 -8 7 -28 12 -45 4 -16 41 -97 82 -179 42 -83 83 -182 94 -225 52 -200 -3
-381 -129 -431 -67 -26 -186 8 -175 51 7 24 50 36 74 20 30 -18 74 -13 96 12
33 34 65 143 64 211 -2 90 -26 168 -102 324 -102 211 -130 320 -106 417 17 66
80 145 117 145 10 0 22 5 25 10 4 6 11 8 16 5 5 -4 19 -8 31 -10z m1651 3 c14
-11 15 -20 8 -48 -5 -19 -13 -84 -16 -144 -4 -60 -8 -116 -10 -125 -3 -20 -16
-113 -21 -155 -3 -32 -11 -76 -19 -112 -3 -12 -7 -39 -10 -60 -3 -21 -8 -48
-10 -60 -2 -11 -7 -45 -10 -75 -4 -30 -8 -59 -10 -66 -4 -13 -15 -160 -19
-255 -3 -57 -17 -88 -42 -88 -24 0 -65 120 -88 255 -3 17 -15 86 -26 154 -12
69 -24 147 -27 175 -9 89 -19 81 -32 -26 -7 -57 -15 -119 -17 -138 -8 -63 -13
-133 -19 -250 -7 -142 -10 -157 -34 -165 -41 -13 -59 10 -66 80 -27 270 -29
284 -40 345 -2 14 -7 48 -10 75 -9 82 -38 288 -50 356 -6 33 -15 96 -20 134
-5 38 -11 72 -20 108 -6 22 -3 32 15 47 12 10 27 17 35 14 24 -9 58 -110 69
-204 3 -25 8 -54 10 -65 2 -11 7 -51 11 -90 4 -38 9 -82 10 -96 7 -55 23 -242
24 -278 1 -41 9 -19 16 44 3 33 8 69 10 80 2 11 7 52 11 90 3 39 8 79 10 89 3
17 13 149 19 246 1 19 3 41 4 48 2 21 43 31 67 15 19 -12 22 -24 23 -81 1 -37
3 -76 5 -87 2 -11 7 -42 10 -70 4 -27 25 -126 47 -220 21 -93 39 -178 39 -189
0 -32 10 -12 15 30 2 21 12 93 21 159 9 66 18 138 20 160 2 22 6 58 9 80 8 65
16 174 19 269 3 92 10 106 52 106 11 0 28 -6 37 -12z m1473 -12 c4 -16 -15
-67 -64 -172 -87 -185 -100 -217 -103 -246 -1 -13 30 -122 69 -243 39 -121 87
-272 106 -335 19 -63 37 -123 41 -132 11 -28 -12 -58 -45 -58 -40 0 -37 -7
-66 165 -6 32 -39 177 -60 260 -1 6 -19 57 -39 115 -20 58 -39 113 -42 123 -8
27 -18 21 -42 -29 -21 -42 -23 -58 -21 -178 8 -416 7 -426 -45 -426 -40 0 -48
41 -40 207 4 81 8 162 10 178 6 41 7 495 1 520 -2 11 -7 60 -11 108 -5 72 -3
93 9 112 13 19 21 23 39 16 37 -14 45 -61 42 -249 -2 -95 -2 -172 0 -170 1 2
30 73 65 158 68 168 90 218 123 267 27 40 64 45 73 9z m-2638 -6 c35 -21 40
-41 17 -60 -11 -9 -22 -9 -45 -2 -26 10 -34 8 -60 -14 -35 -30 -50 -80 -45
-151 5 -74 28 -137 110 -304 84 -169 103 -231 105 -349 3 -100 -32 -200 -87
-253 -50 -47 -136 -61 -200 -31 -28 14 -33 22 -31 43 3 28 18 31 104 16 39 -7
43 -5 68 28 37 48 57 127 55 212 -3 85 -25 161 -80 274 -109 224 -132 291
-132 386 0 120 76 225 163 225 14 0 40 -9 58 -20z m-2599 -10 c12 -6 21 -8 21
-4 0 18 64 -63 83 -104 34 -77 31 -164 -9 -280 -38 -110 -40 -130 -18 -227 8
-38 17 -81 20 -94 6 -30 72 -239 84 -266 47 -108 40 -202 -13 -173 -37 19 -43
31 -50 88 -9 71 -15 102 -33 175 -21 83 -104 358 -109 364 -3 2 -5 -134 -5
-302 0 -292 -1 -307 -19 -317 -24 -12 -48 -4 -55 18 -3 10 -4 267 -1 572 3
525 4 555 22 561 22 9 54 5 82 -11z m524 5 c7 3 23 -4 37 -14 21 -17 23 -22
12 -46 -7 -14 -18 -25 -24 -24 -7 1 -32 1 -54 0 l-41 -1 1 -211 1 -210 41 6
c31 4 46 2 58 -10 35 -35 6 -75 -55 -75 l-39 0 0 -238 0 -239 70 0 c70 0 100
-12 100 -39 0 -29 -50 -48 -129 -49 -95 -2 -109 2 -117 29 -4 11 -7 224 -7
472 0 253 -4 478 -10 513 -12 75 7 130 45 132 45 2 80 8 86 14 4 3 8 2 10 -4
2 -5 9 -8 15 -6z m1151 -17 c6 -4 11 -17 13 -28 4 -25 -30 -40 -86 -40 l-38 0
1 -210 1 -210 42 5 c30 3 47 0 58 -11 18 -18 18 -16 5 -48 -8 -23 -15 -26 -55
-26 l-45 0 -1 -42 c0 -42 0 -160 1 -345 l0 -93 58 3 c60 4 112 -13 112 -37 0
-20 -46 -47 -80 -48 -17 -1 -27 -5 -23 -11 4 -6 1 -7 -8 -1 -8 4 -32 9 -54 9
-50 1 -85 13 -86 28 0 7 -2 226 -4 487 -2 261 -6 500 -10 530 -8 76 11 100 83
103 29 1 52 5 52 9 0 8 48 -10 64 -24z m2446 20 c0 15 58 -19 65 -37 11 -27
-30 -54 -79 -53 -52 2 -55 -4 -45 -83 3 -27 6 -114 5 -193 l-2 -143 42 5 c45
5 57 0 67 -27 13 -35 -10 -57 -58 -57 l-45 0 0 -239 0 -238 71 0 c82 0 109
-16 90 -52 -7 -11 -18 -21 -26 -21 -8 0 -15 -4 -15 -8 0 -12 -180 -6 -193 7
-7 7 -11 155 -12 483 -1 260 -5 502 -9 538 -8 79 7 106 67 113 21 3 41 8 44
11 3 3 12 1 20 -5 9 -8 13 -8 13 -1z m508 -21 c18 -14 15 -45 -7 -57 -11 -5
-40 -10 -66 -10 l-46 0 7 -107 c6 -111 6 -236 0 -286 -3 -28 -3 -28 39 -22 47
6 75 -11 75 -44 0 -28 -21 -41 -66 -41 l-43 0 2 -237 2 -238 68 -1 c77 -1 104
-17 92 -54 -4 -12 -9 -19 -12 -17 -2 3 -15 0 -28 -7 -33 -17 -172 -13 -190 5
-13 12 -15 95 -18 509 -2 272 -7 510 -11 527 -5 23 -2 41 10 62 28 47 138 57
192 18z m-6382 10 c2 -2 11 -86 19 -172 3 -33 10 -89 15 -125 18 -116 18 -124
35 -390 2 -36 9 -119 15 -185 16 -178 15 -237 -7 -253 -18 -13 -63 -8 -73 9
-3 5 -5 56 -5 113 1 96 0 105 -19 115 -50 24 -151 35 -165 18 -5 -7 -12 -29
-15 -49 -8 -54 -25 -128 -37 -165 -8 -24 -17 -33 -32 -33 -45 0 -50 12 -33 76
8 33 18 77 22 98 3 21 8 48 10 60 8 42 50 279 59 336 2 14 16 86 30 160 15 74
29 144 31 156 2 12 15 56 29 99 40 121 56 145 95 138 13 -2 25 -5 26 -6z
m1350 -28 c4 -63 15 -179 19 -197 2 -12 7 -52 10 -89 4 -37 8 -75 10 -83 6
-24 14 -117 20 -241 3 -63 7 -126 10 -140 6 -34 17 -183 19 -258 3 -70 -16
-104 -51 -98 -40 6 -43 16 -43 127 0 106 -4 120 -35 127 -5 1 -20 4 -32 7 -61
13 -111 17 -117 8 -5 -8 -19 -70 -42 -177 -14 -69 -40 -90 -77 -62 -15 11 -15
16 -2 61 8 27 22 87 30 135 8 47 17 98 20 114 3 15 7 39 10 55 3 15 17 92 31
172 14 80 28 159 31 175 9 63 56 252 76 305 26 74 51 100 85 91 18 -5 27 -14
28 -32z"/>
<path d="M4097 5813 c-32 -132 -62 -292 -86 -447 -22 -147 -25 -143 113 -150
l68 -4 -6 88 c-4 49 -8 97 -10 107 -2 10 -7 52 -10 93 -4 41 -8 89 -10 105 -6
41 -19 222 -21 267 -2 67 -13 51 -38 -59z"/>
<path d="M6800 5896 c-5 -13 -12 -41 -16 -62 -10 -50 -11 -54 -14 -56 -3 -4
-8 -28 -19 -88 -6 -30 -13 -66 -16 -80 -10 -48 -18 -95 -20 -115 -1 -11 -5
-36 -9 -55 -4 -19 -9 -46 -10 -60 -2 -14 -7 -50 -11 -81 -6 -46 -4 -57 11 -70
16 -12 17 -12 9 1 -7 13 -6 13 7 2 16 -12 132 -24 155 -15 6 3 10 12 8 21 -1
9 -6 57 -10 106 -3 50 -8 93 -10 96 -2 3 -7 44 -10 90 -4 47 -8 99 -10 115 -4
45 -18 237 -19 258 0 23 -5 21 -16 -7z"/>
<path d="M3297 4237 c-5 -15 -11 -291 -8 -351 1 -17 3 -17 22 5 26 30 35 51
44 114 12 73 10 120 -6 168 -15 47 -45 83 -52 64z"/>
<path d="M1500 4065 c-5 -14 -12 -36 -14 -48 -3 -12 -14 -62 -25 -112 -11 -49
-22 -108 -26 -130 -3 -22 -10 -67 -15 -100 -24 -145 -24 -164 0 -173 33 -12
145 -9 143 4 -1 6 -4 44 -7 85 -3 41 -8 92 -11 114 -12 98 -27 275 -29 347 -1
45 -3 46 -16 13z"/>
<path d="M2836 4038 c-9 -29 -24 -98 -35 -153 -18 -88 -26 -135 -45 -250 -12
-67 -15 -125 -7 -129 4 -3 34 -8 67 -11 32 -4 62 -9 66 -11 10 -7 26 28 22 50
-1 10 -6 58 -9 105 -4 47 -9 94 -11 105 -2 10 -6 53 -9 95 -3 42 -8 92 -11
111 -3 19 -5 59 -5 88 0 28 -2 52 -4 52 -3 0 -11 -24 -19 -52z"/>
<path d="M3325 9359 c-16 -5 -39 -11 -50 -13 -68 -14 -356 -125 -437 -168 -93
-50 -68 -65 45 -28 34 12 71 25 82 30 61 28 211 86 287 111 93 30 143 53 153
69 8 12 -38 12 -80 -1z"/>
<path d="M2056 771 c-9 -13 67 -105 106 -128 18 -12 51 -26 73 -33 22 -7 59
-24 83 -38 28 -16 47 -21 53 -15 6 6 -39 43 -128 105 -160 110 -180 121 -187
109z"/>
<path d="M2380 645 c0 -8 65 -64 89 -77 15 -7 50 -28 79 -46 30 -19 56 -32 58
-29 9 9 -80 87 -113 99 -18 7 -33 15 -33 19 0 4 -8 9 -17 13 -10 3 -28 10 -40
16 -13 5 -23 7 -23 5z"/>
<path d="M2873 263 c4 -6 46 -37 93 -68 89 -58 162 -82 197 -64 25 14 14 25
-37 38 -25 6 -87 29 -138 52 -128 56 -122 54 -115 42z"/>
</g>
</svg>
